# xmcd CD database file
#
# Track frame offsets:
#	182
#	14190
#	28190
#	41990
#	57097
#	71287
#	84845
#	97057
#	107840
#	122290
#
# Disc length: 1829 seconds
#
# Revision: 3
# Processed by: cddbd v1.5.2PL0 Copyright (c) Steve Scherf et al.
# Submitted via: CDex 1.51
#
DISCID=8107230a
DTITLE=Rhonda Vincent - Written In The Stars
DYEAR=2005
DGENRE=Country
TTITLE0=What Else Could I Do
TTITLE1=Written In The Stars
TTITLE2=Ain't That Love
TTITLE3=In Your Loneliness
TTITLE4=Mama Knows The Highway
TTITLE5=When Love Arrives
TTITLE6=Passin' Of The Train
TTITLE7=I Do My Cryin' At Night
TTITLE8=I'm Not Over You
TTITLE9=If You Were Me
EXTD=YEAR: 2005
EXTT0=
EXTT1=
EXTT2=
EXTT3=
EXTT4=
EXTT5=
EXTT6=
EXTT7=
EXTT8=
EXTT9=
PLAYORDER=
